PathFileType	4	(X/Y/Z)	TVC_4_Cal_03_0_static_RCNL2025.trc
DataRate	CameraRate	NumFrames	NumMarkers	Units	OrigDataRate	OrigDataStartFrame	OrigNumFrames
100	100	9	27	mm	100	58	228
Frame#	Time	R_Shoulder			L_Shoulder			C7			J_Notch			R_Elbow			L_Elbow			R_Wrist			L_Wrist			R_Asis			L_Asis			R_Psis			L_Psis			Sacral			Thoracic			Sternum			R_Thigh_Lateral			R_Knee_Lateral			R_Shank_Lateral			R_Ankle_Lateral			R_Heel			R_Toe			L_Thigh_Lateral			L_Knee_Lateral			L_Shank_Lateral			L_Ankle_Lateral			L_Heel			L_Toe		
		X1	Y1	Z1	X2	Y2	Z2	X3	Y3	Z3	X4	Y4	Z4	X5	Y5	Z5	X6	Y6	Z6	X7	Y7	Z7	X8	Y8	Z8	X9	Y9	Z9	X10	Y10	Z10	X11	Y11	Z11	X12	Y12	Z12	X13	Y13	Z13	X14	Y14	Z14	X15	Y15	Z15	X16	Y16	Z16	X17	Y17	Z17	X18	Y18	Z18	X19	Y19	Z19	X20	Y20	Z20	X21	Y21	Z21	X22	Y22	Z22	X23	Y23	Z23	X24	Y24	Z24	X25	Y25	Z25	X26	Y26	Z26	X27	Y27	Z27
58	0.57000000	-254.727859	1343.829346	-57.009995	-216.048615	1343.859131	-418.718231	-291.807251	1391.207520	-229.525864	-143.587860	1270.491699	-236.793900	-240.443863	1131.969849	148.248322	-203.128311	1107.686279	-617.078125	-160.792908	954.616302	271.696587	-89.460075	931.903229	-679.452728	-238.096130	883.266113	-42.482502	-249.720886	866.167542	-397.372009	-383.018829	919.567688	-165.259918	-383.249542	914.661438	-256.771454	-383.134186	917.114563	-211.015686	-367.322937	1148.036987	-232.892349	-110.144325	1077.313843	-226.121918	-261.705078	541.855164	-5.783040	-283.691101	423.516815	-46.576092	-302.723053	281.339966	22.191795	-312.006897	60.662628	-60.430149	-356.735840	51.895126	-109.039856	-179.302872	44.184032	-72.771919	-248.140320	518.203369	-419.317749	-264.368561	429.575104	-379.287933	-264.124634	316.606354	-428.717224	-294.027893	60.770149	-363.519592	-341.423187	49.642117	-319.486298	-158.089462	42.019493	-344.118317
59	0.58000000	-254.512268	1343.853516	-57.048500	-215.873062	1343.764648	-418.759583	-291.568298	1391.232910	-229.593445	-143.383301	1270.416870	-236.905624	-240.373199	1132.139648	148.221329	-203.180695	1107.597656	-617.026001	-160.869850	954.788452	271.777756	-89.509827	931.642914	-679.421417	-237.990234	883.255737	-42.556824	-249.562897	866.175354	-397.387695	-382.950012	919.670227	-165.203918	-383.098969	914.673889	-256.776337	-383.024490	917.172058	-210.990128	-367.092316	1148.041138	-232.916000	-109.987228	1077.199097	-226.171829	-261.595886	541.854553	-5.756748	-283.625610	423.514679	-46.547127	-302.703430	281.277985	22.149265	-312.008911	60.542770	-60.469040	-356.727356	51.851387	-109.095093	-179.288193	44.214489	-72.790596	-248.121445	518.220764	-419.320068	-264.377380	429.571808	-379.313141	-264.145569	316.527527	-428.622894	-294.060608	60.849480	-363.583008	-341.457458	49.631443	-319.444855	-158.188721	42.004971	-344.069000
60	0.59000000	-254.358444	1343.896973	-57.152184	-215.634338	1343.751709	-418.806702	-291.315704	1391.286499	-229.659851	-143.186661	1270.420044	-236.946930	-240.495468	1132.256958	148.290939	-202.995422	1107.397583	-617.155090	-160.922539	954.909637	271.915390	-89.598816	931.448792	-679.425110	-237.883423	883.237976	-42.516048	-249.481964	866.211487	-397.418152	-382.880341	919.681763	-165.232864	-382.933777	914.693359	-256.773529	-382.907059	917.187561	-211.003197	-366.973083	1148.106079	-232.999466	-109.826454	1077.113281	-226.201340	-261.419189	541.868103	-5.788188	-283.553864	423.514832	-46.621998	-302.866913	281.489685	22.308409	-311.991638	60.530674	-60.470879	-356.756287	51.921864	-109.026321	-179.294678	44.201130	-72.774933	-248.081100	518.226929	-419.322937	-264.312469	429.532135	-379.294708	-264.134857	316.543304	-428.625793	-294.059723	60.848324	-363.571228	-341.486176	49.686520	-319.408539	-158.172256	41.976284	-344.068329
61	0.60000000	-254.116028	1343.975342	-57.237759	-215.442963	1343.686279	-418.850830	-291.107758	1391.253906	-229.750244	-142.995056	1270.362061	-236.952118	-240.624527	1132.455200	148.369415	-202.940247	1107.341553	-617.117798	-160.911667	955.056671	272.062180	-89.656181	931.252533	-679.449158	-237.690765	883.169800	-42.519558	-249.384918	866.161743	-397.378113	-382.733551	919.738892	-165.229141	-382.785217	914.704651	-256.733429	-382.759384	917.221771	-210.981285	-366.764832	1148.136719	-233.025070	-109.722351	1077.073608	-226.292099	-261.399323	541.828735	-5.800958	-283.513336	423.532257	-46.590511	-302.645233	281.407135	22.186298	-311.988068	60.652996	-60.441841	-356.760437	51.946224	-109.019333	-179.271500	44.199444	-72.729942	-247.936081	518.257202	-419.312164	-264.307800	429.538055	-379.293121	-264.120148	316.621704	-428.698975	-294.063660	60.821907	-363.540985	-341.489166	49.699192	-319.405426	-158.155365	42.041126	-344.061554
62	0.61000000	-253.807404	1343.995605	-57.490307	-215.254227	1343.618774	-418.940826	-290.918762	1391.280884	-229.876328	-142.808456	1270.283325	-237.048096	-240.452148	1132.490356	148.220352	-202.934753	1107.259766	-617.159790	-161.210396	955.250763	272.367714	-89.899807	930.914886	-679.653015	-237.598785	883.212280	-42.568539	-249.389053	866.138062	-397.396545	-382.639008	919.781067	-165.285934	-382.762665	914.734863	-256.759857	-382.700836	917.257965	-211.022896	-366.631073	1148.209351	-233.000519	-109.541588	1077.108643	-226.341171	-261.413147	541.849854	-5.754904	-283.447083	423.523926	-46.641155	-302.804230	281.549072	22.390678	-311.981873	60.714653	-60.432594	-356.782623	51.968239	-108.993950	-179.273895	44.226830	-72.708519	-247.921463	518.268372	-419.315765	-264.282379	429.536804	-379.280670	-264.003845	316.609528	-428.651855	-294.033447	60.849236	-363.512604	-341.486023	49.691166	-319.394928	-158.148071	42.043606	-344.053772
63	0.62000000	-253.618393	1343.989380	-57.512524	-215.078781	1343.569092	-418.990204	-290.643433	1391.245239	-229.976334	-142.629257	1270.220459	-237.063568	-240.280945	1132.561279	148.212219	-202.892517	1107.280884	-617.195435	-161.151031	955.352509	272.332886	-89.991570	930.678070	-679.694092	-237.513550	883.192993	-42.604805	-249.232727	866.165161	-397.398102	-382.559357	919.752441	-165.215912	-382.659271	914.766174	-256.713501	-382.609314	917.259308	-210.964706	-366.528290	1148.122803	-233.082352	-109.349503	1077.055420	-226.372498	-261.487213	541.818176	-5.831859	-283.393066	423.528076	-46.627747	-302.857483	281.574005	22.398815	-312.207275	60.842026	-60.300877	-356.779022	51.947693	-108.988403	-179.275543	44.228851	-72.708443	-247.817841	518.261353	-419.315857	-264.259521	429.551392	-379.256927	-263.844208	316.589233	-429.096863	-294.036896	60.826225	-363.528809	-341.490387	49.666637	-319.402985	-158.142975	42.013229	-344.062286
64	0.63000000	-253.482361	1344.021240	-57.598087	-214.832352	1343.503662	-419.068451	-290.460510	1391.277588	-230.078598	-142.458237	1270.161743	-237.119843	-240.467270	1132.780762	148.365097	-202.792084	1107.146606	-617.244873	-161.247238	955.465515	272.388794	-90.129841	930.512146	-679.772461	-237.386932	883.122131	-42.594814	-249.164841	866.147095	-397.387177	-382.450928	919.781006	-165.320511	-382.504211	914.713074	-256.704681	-382.477570	917.247040	-211.012596	-366.380066	1148.234985	-233.072632	-109.235443	1076.981201	-226.361496	-261.527374	541.791199	-5.828379	-283.424500	423.531769	-46.601536	-302.863373	281.575684	22.395264	-312.053467	60.546635	-60.467415	-356.770050	51.942951	-109.015038	-179.262878	44.257763	-72.716232	-247.946686	518.235962	-419.216034	-264.158478	429.412292	-379.310730	-263.993011	316.519989	-428.639648	-294.054413	60.807457	-363.533691	-341.551331	49.683594	-319.340393	-158.164948	41.999413	-344.068665
65	0.64000000	-253.300369	1344.047363	-57.616844	-214.632385	1343.425049	-419.130219	-290.276855	1391.285767	-230.118561	-142.363754	1270.130493	-237.240952	-240.520905	1132.833130	148.354279	-202.678696	1107.070435	-617.306702	-161.309784	955.580658	272.518059	-90.208858	930.386169	-679.867218	-237.291061	883.109497	-42.667515	-249.079147	866.113037	-397.321991	-382.303864	919.755249	-165.310043	-382.417297	914.758972	-256.673401	-382.360580	917.257111	-210.991722	-366.167297	1148.201050	-233.084091	-109.044525	1076.959229	-226.401443	-261.350159	541.762939	-5.868855	-283.356293	423.550079	-46.661385	-302.831207	281.535004	22.360218	-311.962738	60.563385	-60.468864	-356.772888	51.929832	-109.021683	-179.288208	44.246162	-72.689278	-247.923935	518.221497	-419.243652	-264.135681	429.412170	-379.327026	-263.932648	316.488495	-428.521790	-294.086639	60.768162	-363.506958	-341.462677	49.634060	-319.423950	-158.157089	42.007484	-344.079620
66	0.65000000	-253.113983	1344.082886	-57.750538	-214.412018	1343.374023	-419.235718	-290.104279	1391.305420	-230.220078	-142.035675	1270.082275	-237.301437	-240.296021	1132.864624	148.172577	-202.664276	1107.049561	-617.296448	-161.426941	955.686157	272.577110	-90.246101	930.261993	-679.939667	-237.326675	883.123779	-42.647339	-248.992157	866.180542	-397.454193	-382.218353	919.778381	-165.353882	-382.336578	914.766296	-256.721527	-382.277466	917.272339	-211.037704	-366.041016	1148.204590	-233.169495	-108.853279	1076.901367	-226.410751	-261.214996	541.742676	-5.861142	-283.273743	423.521484	-46.644176	-302.601959	281.311310	22.191336	-312.209137	60.785191	-60.311665	-356.785034	51.951630	-109.018944	-179.305313	44.186775	-72.777184	-247.773071	518.198975	-419.233765	-264.081604	429.383301	-379.348663	-263.925751	316.435059	-428.502258	-294.100494	60.744457	-363.488678	-341.437317	49.607681	-319.444427	-158.175537	42.004383	-344.037354
